# xmcd
#
# Track frame offsets: 
#        150
#        12620
#        22755
#        43815
#        67652
#        86375
#        103920
#        120070
#        133045
#        146427
#        156557
#        169675
#        183395
#        198460
#
# Disc length: 2891 seconds
#
# Revision: 2
# Processed by: cddbd v1.5.2PL0 Copyright (c) Steve Scherf et al.
# Submitted via: ExactAudioCopy v1.0b4
#
DISCID=b40b490e
DTITLE=Various Artist - Motorcycle Mama CD 2
DYEAR=1900
DGENRE=Roadmusic
TTITLE0=Bob Seger - Bob Seger - Get Out Of Denver
TTITLE1=Sailcat - Sailcat - Motorcycle Mama
TTITLE2=Melanie - Melanie - Ruby Tuesday
TTITLE3=Sir Douglas Quintett - Sir Douglas Quintett - Mendocino Dynami
TTITLE3=te Woman
TTITLE4=Lobo - Lobo - I'd Love You To Want Me
TTITLE5=Van Morrison - Van Morrison - Spanish Rose
TTITLE6=Redbone - Redbone - The Witch Queen Of New Orleans
TTITLE7=Vanity Fare - Vanity Fare - Hitchin' A Ride
TTITLE8=Bread - Bread - Let Your Love Go
TTITLE9=Badfinger - Badfinger - Gone And Get It
TTITLE10=B.j. Thomas - B.j. Thomas - Raindrops Keep Falling On My Head
TTITLE11=Iron Butterfly - Iron Butterfly - In-A-Gadda-Da-Vida
TTITLE12=The Chi-Lites - The Chi-Lites - Oh Girl
TTITLE13=Eric Burdon - Eric Burdon - We Gotta Get Out Of This Place
EXTD=
EXTT0=
EXTT1=
EXTT2=
EXTT3=
EXTT4=
EXTT5=
EXTT6=
EXTT7=
EXTT8=
EXTT9=
EXTT10=
EXTT11=
EXTT12=
EXTT13=
PLAYORDER=
